<svg id="visual" viewBox="0 0 900 600" width="900" height="600" xmlns="http://www.w3.org/2000/svg" xmlns:xlink="http://www.w3.org/1999/xlink" version="1.1"><rect x="0" y="0" width="900" height="600" fill="#8C5637"></rect><defs><linearGradient id="grad1_0" x1="33.3%" y1="0%" x2="100%" y2="100%"><stop offset="20%" stop-color="#8c5637" stop-opacity="1"></stop><stop offset="80%" stop-color="#8c5637" stop-opacity="1"></stop></linearGradient></defs><defs><linearGradient id="grad2_0" x1="0%" y1="0%" x2="66.7%" y2="100%"><stop offset="20%" stop-color="#8c5637" stop-opacity="1"></stop><stop offset="80%" stop-color="#8c5637" stop-opacity="1"></stop></linearGradient></defs><g transform="translate(900, 0)"><path d="M0 378.6C-56.4 352.4 -112.9 326.2 -172 297.9C-231.1 269.6 -293 239.3 -327.9 189.3C-362.7 139.3 -370.7 69.6 -378.6 0L0 0Z" fill="#d98e04"></path></g><g transform="translate(0, 600)"><path d="M0 -378.6C75.1 -373.8 150.1 -369 189.3 -327.9C228.4 -286.7 231.6 -209.2 257.2 -148.5C282.8 -87.8 330.7 -43.9 378.6 0L0 0Z" fill="#d98e04"></path></g></svg>